<?xml version="1.0" standalone="no"?><!DOCTYPE svg PUBLIC "-//W3C//DTD SVG 1.1//EN" "http://www.w3.org/Graphics/SVG/1.1/DTD/svg11.dtd"><svg t="1499306711508" class="icon" style="" viewBox="0 0 1024 1024" version="1.1" xmlns="http://www.w3.org/2000/svg" p-id="14467" xmlns:xlink="http://www.w3.org/1999/xlink" width="200" height="200"><defs><style type="text/css"></style></defs><path d="M512 352C494.848 352 480 366.336 480 384l0 384C480 785.28 494.336 800 512 800 529.152 800 544 785.664 544 768l0-384C544 366.784 529.664 352 512 352z" p-id="14468"></path><path d="M512 256m-32 0a0.5 0.5 0 1 0 64 0 0.5 0.5 0 1 0-64 0Z" p-id="14469"></path><path d="M512 32C246.912 32 32 246.912 32 512S246.912 992 512 992 992 777.088 992 512 777.088 32 512 32zM512 928C282.24 928 96 741.76 96 512S282.24 96 512 96 928 282.24 928 512 741.76 928 512 928z" p-id="14470"></path></svg>