<?xml version="1.0" standalone="no"?><!DOCTYPE svg PUBLIC "-//W3C//DTD SVG 1.1//EN" "http://www.w3.org/Graphics/SVG/1.1/DTD/svg11.dtd"><svg t="1499327585163" class="icon" style="" viewBox="0 0 1024 1024" version="1.1" xmlns="http://www.w3.org/2000/svg" p-id="3124" xmlns:xlink="http://www.w3.org/1999/xlink" width="200" height="200"><defs><style type="text/css"></style></defs><path d="M902.08 488h-73.12V292.56a97.52 97.52 0 0 0-97.52-97.52H536v-73.12a121.92 121.92 0 1 0-243.84 0v73.12H97.52A97.12 97.12 0 0 0 0.48 292.56L0 477.84h73.12a131.68 131.68 0 0 1 0 263.28H0v185.28A97.52 97.52 0 0 0 97.52 1024h185.28v-73.12a131.68 131.68 0 1 1 263.28 0V1024h185.36a97.52 97.52 0 0 0 97.52-97.52V731.44h73.12a121.92 121.92 0 0 0 0-243.84z" p-id="3125"></path></svg>